<svg width="57" height="68" viewBox="0 0 57 68" fill="none" xmlns="http://www.w3.org/2000/svg">
<path fill-rule="evenodd" clip-rule="evenodd" d="M36.4953 0.88449C35.5266 4.55937 36.6257 11.4864 38.9007 16.0391C41.016 20.2712 47.6418 25.7709 48.9835 24.4073C49.2351 24.1515 49.3438 21.7863 49.2245 19.1515C49.0396 15.0514 48.7687 13.8542 47.3447 10.8439C45.6286 7.21678 41.3465 2.35187 38.3504 0.627685C36.8263 -0.250074 36.7935 -0.245451 36.4953 0.88449ZM10.4942 15.3477C5.27368 17.0812 1.97996 21.0175 1.45947 26.1459C0.883901 31.813 3.84461 36.2789 11.23 40.8823C13.5565 42.3323 15.4601 43.588 15.4601 43.6728C15.4601 43.758 13.8769 47.567 11.942 52.1381C8.4148 60.4719 7.17927 62.8972 6.4607 62.8972C5.71332 62.8972 2.3251 57.0929 1.47817 54.362C1.0067 52.8417 0.438708 51.5978 0.215859 51.5978C-0.16061 51.5978 -0.0807689 53.0338 0.743925 61.0836C1.04207 63.9937 1.15931 64.2074 3.04165 65.2798C7.48601 67.8124 16.5223 68.1653 21.3557 65.9953C26.1114 63.8607 29.0175 59.8048 29.4763 54.663C29.9261 49.6214 27.7259 45.4037 22.9263 42.1073L20.2607 40.2763L27.2135 40.416L34.1663 40.5552L39.2024 51.341C41.9726 57.2732 44.2445 62.7339 44.2511 63.4765C44.2678 65.2598 43.2354 66.0492 40.4733 66.3656C35.752 66.9064 38.5182 67.2634 47.5484 67.2783C56.4841 67.2932 58.7757 67.003 55.2991 66.2963C52.2787 65.682 50.4565 62.74 38.7779 39.625L27.4803 17.2656L24.8814 16.1207C21.5745 14.6651 13.8076 14.2476 10.4942 15.3477ZM18.6507 16.1947C20.5411 16.7283 24.5448 20.3082 24.5671 21.4854C24.5868 22.5424 17.8402 38.2439 17.3657 38.2439C16.3308 38.2439 9.94947 33.6143 8.76751 32.0061C6.67697 29.1607 6.26311 27.9866 6.26311 24.9019C6.26311 17.9214 11.565 14.1952 18.6507 16.1947ZM29.6421 30.831C31.5694 34.946 33.1465 38.4129 33.1465 38.5352C33.1465 38.6574 30.1904 38.7575 26.5773 38.7575C21.6721 38.7575 20.008 38.5958 20.008 38.1181C20.008 37.4458 25.7036 23.3626 25.9785 23.3544C26.0664 23.3513 27.7148 26.716 29.6421 30.831ZM20.0995 47.1037C23.1885 50.1612 24.2735 52.6661 24.271 56.7339C24.2679 61.9999 21.852 65.2429 17.4885 65.8376C13.463 66.3862 10.9121 64.7226 10.9121 61.5485C10.9121 59.0328 16.4429 44.9209 17.4288 44.9209C17.6845 44.9209 18.8862 45.9029 20.0995 47.1037Z" fill="black"/>
</svg>
