<svg width="24" height="24" viewBox="0 0 24 24" fill="none" xmlns="http://www.w3.org/2000/svg">
<path d="M9.83014 19.6992H3.62373C3.23973 19.6992 2.92773 20.0112 2.92773 20.3952C2.92773 20.7792 3.23973 21.0912 3.62373 21.0912H9.83014C10.2141 21.0912 10.5261 20.7792 10.5261 20.3952C10.5261 20.0112 10.2141 19.6992 9.83014 19.6992Z" fill="black"/>
<path d="M20.3614 19.6992H14.155C13.771 19.6992 13.459 20.0112 13.459 20.3952C13.459 20.7792 13.771 21.0912 14.155 21.0912H20.3614C20.7454 21.0912 21.0574 20.7792 21.0574 20.3952C21.0574 20.0112 20.7454 19.6992 20.3614 19.6992Z" fill="black"/>
<path d="M23.4166 2.92321C23.0398 2.84641 22.6702 3.08881 22.5934 3.46561C22.5862 3.50161 22.3246 4.77361 21.979 6.44881C20.1886 6.33121 19.4038 4.72081 19.3702 4.65121C19.2598 4.41841 19.0342 4.26721 18.7774 4.25281C18.5206 4.23841 18.2782 4.36801 18.1462 4.58641L18.0814 4.69201C17.6566 5.39761 17.0158 6.46081 15.4678 6.46081C13.8718 6.46081 12.9694 5.16961 12.583 4.61761L12.5326 4.54561C12.4078 4.36801 12.2086 4.26001 11.9926 4.25041C11.7766 4.24081 11.5678 4.33201 11.4286 4.49761C11.3614 4.57921 11.2846 4.68001 11.1958 4.79521C10.6942 5.45761 9.9382 6.45841 8.5174 6.45841C6.5782 6.45841 5.7382 4.72321 5.7022 4.64881C5.5918 4.41601 5.3638 4.26481 5.1094 4.25041C4.8526 4.23601 4.6102 4.36561 4.4782 4.58641L4.4182 4.68721C4.0126 5.36401 3.4078 6.36721 1.9918 6.45121C1.6462 4.77361 1.3846 3.49921 1.3774 3.46321C1.3006 3.08641 0.933403 2.84401 0.554203 2.92081C0.179803 3.00001 -0.0625969 3.36961 0.0142031 3.74641C0.0358031 3.84961 2.1574 14.1504 2.3086 14.8992C2.8366 17.5008 4.1278 18.468 7.075 18.468H16.8958C19.843 18.468 21.1342 17.5008 21.6622 14.8992C21.8134 14.1504 23.935 3.84961 23.9566 3.74641C24.0358 3.36961 23.7934 3.00001 23.4166 2.92321ZM20.299 14.6208C19.9318 16.4304 19.363 17.0712 16.8982 17.0712H7.075C4.6102 17.0712 4.0414 16.428 3.6742 14.6208C3.5878 14.1984 2.8846 10.7736 2.2774 7.82641C3.6838 7.68241 4.5406 6.91201 5.0806 6.20881C5.7046 6.95521 6.811 7.85281 8.5198 7.85281C10.2502 7.85281 11.323 6.84961 11.9542 6.09121C12.6094 6.86881 13.7374 7.85281 15.4678 7.85281C17.1598 7.85281 18.1462 6.98641 18.7438 6.20881C19.3702 6.94561 20.3566 7.67761 21.6934 7.82401C21.0886 10.7712 20.383 14.2008 20.299 14.6208Z" fill="black"/>
</svg>
