<svg width="24" height="24" viewBox="0 0 24 24" fill="none" xmlns="http://www.w3.org/2000/svg">
<path fill-rule="evenodd" clip-rule="evenodd" d="M23.8104 19.8528C23.724 19.4208 21.6936 9.27358 21.5112 8.42158C20.7048 4.66798 18.8184 3.20398 14.7864 3.20398H6.4872C6.0528 3.20398 5.7 3.55678 5.7 3.99118C5.7 4.42558 6.0528 4.77838 6.4872 4.77838H14.7864C18.4488 4.77838 19.4064 6.11518 19.9728 8.75038C19.9944 8.85358 20.0472 9.10318 20.1192 9.46078H11.9832C1.008 9.46318 0.0744 19.8408 0.0648 19.9464L0 20.796H24L23.8104 19.8528ZM1.7712 19.2192C1.9464 18.3552 2.3424 16.9464 3.2016 15.5376C5.0184 12.552 7.9728 11.0376 11.9808 11.0376H20.436C20.9448 13.5576 21.7224 17.4432 22.0776 19.2192H1.7712Z" fill="black"/>
<path fill-rule="evenodd" clip-rule="evenodd" d="M12.7463 13.7784C11.8319 13.7784 11.0879 14.52 11.0879 15.4368C11.0879 16.3512 11.8295 17.0928 12.7463 17.0928C13.6607 17.0928 14.4023 16.3512 14.4023 15.4368C14.4023 14.52 13.6607 13.7784 12.7463 13.7784Z" fill="black"/>
<path fill-rule="evenodd" clip-rule="evenodd" d="M7.83125 13.7784C6.91685 13.7784 6.17285 14.52 6.17285 15.4368C6.17285 16.3512 6.91445 17.0928 7.83125 17.0928C8.74565 17.0928 9.48725 16.3512 9.48725 15.4368C9.48965 14.52 8.74805 13.7784 7.83125 13.7784Z" fill="black"/>
<path fill-rule="evenodd" clip-rule="evenodd" d="M17.657 13.7784C16.7426 13.7784 16.001 14.52 16.001 15.4368C16.001 16.3512 16.7426 17.0928 17.657 17.0928C18.5714 17.0928 19.313 16.3512 19.313 15.4368C19.313 14.52 18.5714 13.7784 17.657 13.7784Z" fill="black"/>
</svg>
