<svg width="24" height="24" viewBox="0 0 24 24" fill="none" xmlns="http://www.w3.org/2000/svg">
<path fill-rule="evenodd" clip-rule="evenodd" d="M23.8104 19.7928C23.724 19.3608 21.6936 9.21358 21.5112 8.36158C20.7048 4.60798 18.8208 3.14398 14.7864 3.14398H6.4872C6.0528 3.14398 5.7 3.49678 5.7 3.93118C5.7 4.36558 6.0528 4.71838 6.4872 4.71838H14.7864C18.4488 4.71838 19.4064 6.05518 19.9728 8.69038C19.9944 8.79358 20.0472 9.04318 20.1192 9.40078H11.9832C1.008 9.40318 0.0744 19.7808 0.0648 19.8864L0 20.736H24L23.8104 19.7928ZM1.7712 19.1592C1.9464 18.2952 2.3424 16.8864 3.2016 15.4776C5.0208 12.492 7.9752 10.9776 11.9832 10.9776H20.4384C20.9472 13.4976 21.7248 17.3832 22.08 19.1592H1.7712Z" fill="black"/>
<path fill-rule="evenodd" clip-rule="evenodd" d="M15.2014 13.7184C14.287 13.7184 13.543 14.46 13.543 15.3768C13.543 16.2912 14.2846 17.0328 15.2014 17.0328C16.1158 17.0328 16.8574 16.2912 16.8574 15.3768C16.8574 14.46 16.1158 13.7184 15.2014 13.7184Z" fill="black"/>
<path fill-rule="evenodd" clip-rule="evenodd" d="M10.2893 13.7184C9.37486 13.7184 8.63086 14.46 8.63086 15.3768C8.63086 16.2912 9.37246 17.0328 10.2893 17.0328C11.2037 17.0328 11.9453 16.2912 11.9453 15.3768C11.9453 14.46 11.2037 13.7184 10.2893 13.7184Z" fill="black"/>
</svg>
