<svg width="24" height="24" viewBox="0 0 24 24" fill="none" xmlns="http://www.w3.org/2000/svg">
<path d="M8.64444 10.4616C7.65564 10.4616 6.57324 11.184 6.57324 12.5232C6.57324 13.6224 7.41564 14.3952 8.39484 14.3952C8.76444 14.3952 9.07404 14.3088 9.33084 14.0688C9.04764 14.8752 8.41164 15.408 7.27644 15.6576L7.69644 16.68C9.44124 16.4904 10.8572 15.1248 10.8572 12.78C10.862 11.3808 9.98604 10.4616 8.64444 10.4616ZM8.72124 13.1952C8.24124 13.1952 7.94844 12.8424 7.94844 12.4296C7.94844 12.12 8.18124 11.7504 8.63484 11.7504C9.17724 11.7504 9.48444 12.2064 9.48444 12.7728C9.33084 12.996 9.09084 13.1952 8.72124 13.1952Z" fill="black"/>
<path d="M13.2716 12.6192H13.0652L13.1852 11.8536H15.0236V10.5648H12.0524L11.6396 13.9344C11.8028 13.8576 12.2588 13.7808 12.6716 13.7808C13.394 13.7808 13.7804 14.1504 13.7804 14.64C13.7804 15.0864 13.4636 15.396 12.998 15.396C12.5948 15.396 12.1388 15.1632 11.906 14.8896L11.1836 15.876C11.5436 16.392 12.326 16.6824 12.962 16.6824C14.1908 16.6824 15.1532 15.9264 15.1532 14.5776C15.1532 13.3488 14.3108 12.6192 13.2716 12.6192Z" fill="black"/>
<path d="M17.3882 10.1352C16.5554 10.1352 15.8594 10.7976 15.8594 11.7C15.8594 12.576 16.5554 13.2288 17.3882 13.2288C18.2474 13.2288 18.953 12.516 18.953 11.64C18.953 10.7376 18.2474 10.1352 17.3882 10.1352ZM17.4074 12.1128C17.1746 12.1128 16.9778 11.916 16.9778 11.6832C16.9778 11.4504 17.1746 11.2536 17.4074 11.2536C17.6402 11.2536 17.837 11.4504 17.837 11.6832C17.837 11.9136 17.6378 12.1128 17.4074 12.1128Z" fill="black"/>
<path d="M23.443 4.23362C23.0638 4.15682 22.6966 4.39922 22.6198 4.77602C22.6126 4.80722 22.4158 5.76962 22.1374 7.11602C20.2534 7.07042 19.4302 5.38082 19.3966 5.30882C19.2862 5.07602 19.0582 4.92242 18.8038 4.91042C18.5494 4.89842 18.3046 5.02562 18.1702 5.24402L18.1078 5.34962C17.683 6.05522 17.0398 7.12082 15.4918 7.12082C13.8934 7.12082 12.9886 5.82722 12.6046 5.27522L12.5542 5.20322C12.4294 5.02562 12.2302 4.91762 12.0142 4.90802C11.7982 4.89842 11.5894 4.98962 11.4502 5.15522C11.383 5.23682 11.3038 5.33762 11.2174 5.45282C10.7158 6.11522 9.95739 7.11842 8.53419 7.11842C6.59259 7.11842 5.75019 5.38082 5.71659 5.30642C5.60619 5.07362 5.37819 4.92002 5.12139 4.90802C4.86459 4.89122 4.62219 5.02322 4.48779 5.24402L4.42779 5.34482C4.01019 6.04322 3.37899 7.08962 1.86459 7.11842C1.58619 5.76962 1.38939 4.80962 1.38219 4.77602C1.30539 4.39922 0.935794 4.15682 0.558994 4.23362C0.179794 4.31042 -0.0626062 4.68002 0.0141938 5.05682C0.0357938 5.16002 2.15979 15.4704 2.31099 16.2216C2.83899 18.8256 4.13259 19.7928 7.08219 19.7928H16.915C19.8646 19.7928 21.1582 18.8256 21.6862 16.2216C21.8374 15.4704 23.9614 5.16002 23.983 5.05682C24.0622 4.68002 23.8198 4.31042 23.443 4.23362ZM20.3206 15.9456C19.9534 17.7552 19.3846 18.3984 16.915 18.3984H7.08459C4.61739 18.3984 4.04619 17.7552 3.67899 15.9456C3.58779 15.492 2.77899 11.5728 2.14779 8.50082C3.63579 8.39282 4.53099 7.59362 5.08779 6.86882C5.71179 7.61762 6.82059 8.51522 8.53179 8.51522C10.2646 8.51522 11.3374 7.51202 11.9686 6.75122C12.6238 7.52882 13.7542 8.51522 15.487 8.51522C17.179 8.51522 18.1678 7.64882 18.7678 6.86882C19.4134 7.62962 20.4454 8.38562 21.8494 8.49842C21.2206 11.568 20.4118 15.492 20.3206 15.9456Z" fill="black"/>
</svg>
