<svg width="24" height="24" viewBox="0 0 24 24" fill="none" xmlns="http://www.w3.org/2000/svg">
<g clip-path="url(#clip0_131_174)">
<path d="M0 0V24H24V0H0ZM22.2504 9.8592C21.4032 5.8008 18.1992 2.5968 14.1408 1.7496H22.2504V9.8592ZM20.7984 12C20.7984 16.8504 16.8504 20.7984 12 20.7984C7.1496 20.7984 3.2016 16.8504 3.2016 12C3.2016 7.1496 7.1496 3.2016 12 3.2016C16.8504 3.2016 20.7984 7.1496 20.7984 12ZM9.8592 1.7496C5.8008 2.5968 2.5968 5.7984 1.7496 9.8568V1.7496H9.8592ZM1.7496 14.1432C2.5968 18.2016 5.8008 21.4056 9.8592 22.2528H1.7496V14.1432ZM14.1408 22.2504C18.1992 21.4032 21.4032 18.1992 22.2504 14.1408V22.2504H14.1408Z" fill="black"/>
</g>
<defs>
<clipPath id="clip0_131_174">
<rect width="24" height="24" fill="white"/>
</clipPath>
</defs>
</svg>
