<svg width="24" height="24" viewBox="0 0 24 24" fill="none" xmlns="http://www.w3.org/2000/svg">
<path d="M24 20.796H0L0.0648 19.9464C0.072 19.8408 1.0056 9.46322 11.9808 9.46322H20.1168C20.0448 9.10562 19.992 8.85602 19.9704 8.75282C19.404 6.11762 18.4464 4.78082 14.784 4.78082H6.4872C6.0528 4.78082 5.7 4.42802 5.7 3.99362C5.7 3.55922 6.0528 3.20642 6.4872 3.20642H14.7864C18.8208 3.20642 20.7072 4.67042 21.5112 8.42402C21.6936 9.27602 23.724 19.4232 23.8104 19.8552L24 20.796ZM1.7712 19.2192H22.08C21.7248 17.4432 20.9472 13.5576 20.4384 11.0376H11.9808C7.9728 11.0376 5.0184 12.552 3.1992 15.5376C2.3424 16.9464 1.9464 18.3552 1.7712 19.2192Z" fill="black"/>
</svg>
