<svg width="24" height="24" viewBox="0 0 24 24" fill="none" xmlns="http://www.w3.org/2000/svg">
<g clip-path="url(#clip0_131_156)">
<path d="M6.43199 20.1672L5.00879 21.636H18.9912L17.568 20.1672H6.43199Z" fill="black"/>
<path d="M21.5161 21.6358H23.4001L23.2249 20.7574C23.1433 20.3542 21.2497 10.8886 21.0793 10.0942C20.7577 8.59182 20.2465 7.48542 19.4737 6.70782L18.4513 7.76382C19.0705 8.37822 19.3969 9.26142 19.6417 10.4038C19.6657 10.519 19.7305 10.8286 19.8193 11.275H15.0505L13.6273 12.7438H20.1169C20.5897 15.0958 21.2857 18.559 21.6073 20.167H20.0905L12.5113 12.3478L23.8969 0.623823C24.0385 0.477423 24.0337 0.244623 23.8897 0.105423C23.7433 -0.0361767 23.5105 -0.0313767 23.3713 0.112623L17.9161 5.71422C17.0737 5.38542 16.0537 5.22942 14.8057 5.22942H9.14892C8.74332 5.22942 8.41452 5.55822 8.41452 5.96382C8.41452 6.36942 8.74332 6.69822 9.14892 6.69822H14.8057C15.5857 6.69822 16.2313 6.76542 16.7737 6.89502L12.5281 11.2726H11.6329C11.5777 11.2726 11.5249 11.275 11.4721 11.275L0.631324 0.112623C0.489724 -0.0337767 0.259324 -0.0385767 0.112924 0.103023C-0.0334762 0.244623 -0.0358762 0.477423 0.103324 0.623823L11.4865 12.3478L3.90972 20.167H2.10972C2.50812 18.2158 4.13292 13.3534 10.4257 12.7966L9.15372 11.4838C5.41452 12.1438 3.32652 14.2486 2.19372 16.0654C0.729724 18.4126 0.530524 20.7454 0.520924 20.8414L0.458524 21.6334H2.48412L0.799324 23.3758C0.657724 23.5222 0.662524 23.755 0.806524 23.8942C0.878524 23.9638 0.969724 23.9974 1.06332 23.9974C1.15932 23.9974 1.25532 23.959 1.32732 23.8846L12.0001 12.8758L22.6729 23.8894C22.7449 23.9638 22.8409 24.0022 22.9369 24.0022C23.0281 24.0022 23.1217 23.9686 23.1937 23.899C23.3401 23.7574 23.3425 23.5246 23.2009 23.3806L21.5161 21.6358Z" fill="black"/>
</g>
<defs>
<clipPath id="clip0_131_156">
<rect width="24" height="24" fill="white"/>
</clipPath>
</defs>
</svg>
