<svg width="24" height="24" viewBox="0 0 24 24" fill="none" xmlns="http://www.w3.org/2000/svg">
<g clip-path="url(#clip0_131_160)">
<path d="M5.8124 20.2248L4.5332 21.504H19.466L18.1868 20.2248H5.8124Z" fill="black"/>
<path d="M22.02 21.504H24L16.8744 9.16321L15.936 10.0992L21.7824 20.2248H20.7408L12.5184 12L23.8416 0.676815C23.9856 0.535215 23.9856 0.302415 23.8416 0.158415C23.6976 0.014415 23.4672 0.014415 23.3232 0.158415L15.9408 7.54321L12 0.720015L8.0592 7.54321L0.6768 0.158415C0.5328 0.014415 0.3024 0.014415 0.1584 0.158415C0.0144 0.300015 0.0144 0.532815 0.1584 0.676815L11.4816 12L3.2592 20.2248H2.2176L8.064 10.0992L7.1256 9.16081L0 21.504H1.9776L0.1584 23.3232C0.0144 23.4648 0.0144 23.6976 0.1584 23.8392C0.2304 23.9112 0.324 23.9472 0.4176 23.9472C0.5112 23.9472 0.6048 23.9112 0.6768 23.8392L12 12.5184L23.3232 23.8416C23.3952 23.9136 23.4888 23.9496 23.5824 23.9496C23.676 23.9496 23.7696 23.9136 23.8416 23.8416C23.9856 23.7 23.9856 23.4672 23.8416 23.3256L22.02 21.504ZM8.9976 8.47921L12 3.28081L15.0024 8.48161L12 11.484L8.9976 8.47921Z" fill="black"/>
</g>
<defs>
<clipPath id="clip0_131_160">
<rect width="24" height="24" fill="white"/>
</clipPath>
</defs>
</svg>
