<svg width="24" height="24" viewBox="0 0 24 24" fill="none" xmlns="http://www.w3.org/2000/svg">
<path d="M20.3829 19.7064H3.62613C3.24213 19.7064 2.92773 20.0184 2.92773 20.4048C2.92773 20.7888 3.23973 21.1032 3.62613 21.1032H20.3829C20.7669 21.1032 21.0813 20.7912 21.0813 20.4048C21.0813 20.0184 20.7693 19.7064 20.3829 19.7064Z" fill="black"/>
<path d="M23.443 2.91361C23.0638 2.83681 22.6966 3.07921 22.6198 3.45601C22.6126 3.49201 22.351 4.76641 22.0054 6.44401C20.215 6.32641 19.4278 4.71601 19.3942 4.64401C19.2838 4.41121 19.0558 4.25761 18.8014 4.24561C18.5446 4.23121 18.3022 4.36081 18.1678 4.57921L18.103 4.68481C17.6782 5.39041 17.035 6.45601 15.487 6.45601C13.8886 6.45601 12.9862 5.16481 12.5998 4.61281L12.5494 4.54081C12.4246 4.36321 12.2254 4.25521 12.0094 4.24561C11.7934 4.23841 11.5846 4.32721 11.4454 4.49281C11.3782 4.57441 11.299 4.67521 11.2126 4.79041C10.711 5.45281 9.9526 6.45601 8.5318 6.45601C6.5902 6.45601 5.7478 4.71841 5.7142 4.64401C5.6038 4.41121 5.3758 4.25761 5.119 4.24561C4.8622 4.23121 4.6198 4.36081 4.4854 4.58161L4.4254 4.68241C4.0198 5.35921 3.4126 6.36481 1.9966 6.44881C1.651 4.76641 1.387 3.49201 1.3798 3.45601C1.303 3.07921 0.933399 2.83681 0.556598 2.91361C0.179798 2.99041 -0.0626015 3.36001 0.0141985 3.73681C0.0357985 3.84001 2.1598 14.1504 2.311 14.9016C2.839 17.5056 4.1326 18.4728 7.0822 18.4728H16.915C19.8646 18.4728 21.1582 17.5056 21.6862 14.9016C21.8374 14.1504 23.9614 3.84001 23.983 3.73681C24.0622 3.36001 23.8198 2.99041 23.443 2.91361ZM20.3206 14.6232C19.9534 16.4352 19.3846 17.076 16.915 17.076H7.0846C4.6174 17.076 4.0462 16.4328 3.679 14.6232C3.5926 14.2008 2.887 10.7712 2.2798 7.82161C3.6862 7.67761 4.5454 6.90721 5.0854 6.20401C5.7094 6.95041 6.8182 7.84801 8.5294 7.84801C10.2622 7.84801 11.335 6.84481 11.9662 6.08401C12.6238 6.86401 13.7542 7.84801 15.487 7.84801C17.179 7.84801 18.1678 6.98161 18.7678 6.20161C19.3942 6.93841 20.383 7.67281 21.7222 7.81921C21.1126 10.7712 20.407 14.2032 20.3206 14.6232Z" fill="black"/>
</svg>
