<svg width="24" height="24" viewBox="0 0 24 24" fill="none" xmlns="http://www.w3.org/2000/svg">
<path d="M6.83691 11.8536H9.25131L7.34331 16.5792H8.75211L10.7897 11.4432V10.5672H6.83691V11.8536Z" fill="black"/>
<path d="M13.2171 10.4976C11.8155 10.4976 11.1387 11.7 11.1387 13.5744C11.1387 15.4464 11.8347 16.6512 13.2339 16.6512C14.6355 16.6512 15.2955 15.4488 15.2955 13.5744C15.2955 11.7 14.6163 10.4976 13.2171 10.4976ZM13.2339 15.4464C12.8043 15.4464 12.5115 14.9664 12.5115 13.5744C12.5115 12.1992 12.7347 11.7024 13.2171 11.7024C13.7067 11.7024 13.9227 12.1584 13.9227 13.5744C13.9203 14.9808 13.7235 15.4464 13.2339 15.4464Z" fill="black"/>
<path d="M17.4888 10.1376C16.656 10.1376 15.96 10.8 15.96 11.7024C15.96 12.5784 16.656 13.2312 17.4888 13.2312C18.348 13.2312 19.0512 12.5184 19.0512 11.6424C19.0536 10.7376 18.348 10.1376 17.4888 10.1376ZM17.5056 12.1128C17.2728 12.1128 17.076 11.916 17.076 11.6832C17.076 11.4504 17.2728 11.2536 17.5056 11.2536C17.7384 11.2536 17.9352 11.4504 17.9352 11.6832C17.9352 11.916 17.7384 12.1128 17.5056 12.1128Z" fill="black"/>
<path d="M23.443 4.23362C23.0638 4.15682 22.6966 4.39922 22.6198 4.77602C22.6126 4.80722 22.4158 5.76722 22.1374 7.11122C20.2534 7.06562 19.4302 5.37602 19.3942 5.30402C19.2838 5.07122 19.0558 4.92002 18.8014 4.90562C18.547 4.89362 18.3022 5.02082 18.1678 5.23922L18.1054 5.34482C17.6806 6.05042 17.0374 7.11602 15.4894 7.11602C13.891 7.11602 12.9862 5.82242 12.6022 5.27282L12.5518 5.20082C12.427 5.02322 12.2278 4.91522 12.0118 4.90562C11.7958 4.89362 11.587 4.98722 11.4478 5.15282C11.3806 5.23442 11.3014 5.33522 11.215 5.45042C10.7134 6.11282 9.955 7.11602 8.5318 7.11602C6.5902 7.11602 5.7478 5.37842 5.7142 5.30402C5.6038 5.07122 5.3758 4.91762 5.119 4.90562C4.8694 4.89362 4.6198 5.02082 4.4854 5.24162L4.4254 5.34242C4.0078 6.04082 3.3766 7.08722 1.8622 7.11362C1.5838 5.76722 1.387 4.80722 1.3798 4.77602C1.303 4.39922 0.933399 4.15682 0.556598 4.23362C0.179798 4.31042 -0.0626015 4.68002 0.0141985 5.05682C0.0357985 5.16002 2.1598 15.4704 2.311 16.2216C2.839 18.8256 4.1326 19.7928 7.0822 19.7928H16.915C19.8646 19.7928 21.1582 18.8256 21.6862 16.2216C21.8374 15.4704 23.9614 5.16002 23.983 5.05682C24.0622 4.68002 23.8198 4.31042 23.443 4.23362ZM20.3206 15.9456C19.9534 17.7552 19.3846 18.3984 16.915 18.3984H7.0846C4.6174 18.3984 4.0462 17.7552 3.679 15.9456C3.5878 15.492 2.779 11.568 2.1478 8.49842C3.6358 8.39042 4.531 7.59122 5.0878 6.86642C5.7118 7.61282 6.8206 8.51042 8.5318 8.51042C10.2646 8.51042 11.3374 7.50722 11.9686 6.74642C12.6238 7.52402 13.7542 8.51042 15.487 8.51042C17.179 8.51042 18.1678 7.64402 18.7678 6.86402C19.4134 7.62482 20.4478 8.38322 21.8518 8.49362C21.2206 11.5656 20.4118 15.492 20.3206 15.9456Z" fill="black"/>
</svg>
