<svg width="24" height="24" viewBox="0 0 24 24" fill="none" xmlns="http://www.w3.org/2000/svg">
<path d="M8.83898 12.6144H8.63258L8.75258 11.8488H10.591V10.56H7.61978L7.20698 13.9272C7.37018 13.8504 7.82618 13.7736 8.23898 13.7736C8.96138 13.7736 9.34778 14.1432 9.34778 14.6328C9.34778 15.0792 9.02858 15.3888 8.56538 15.3888C8.16218 15.3888 7.70618 15.156 7.47338 14.8824L6.75098 15.8712C7.11098 16.3872 7.89338 16.6776 8.52938 16.6776C9.75818 16.6776 10.7206 15.9216 10.7206 14.5728C10.7206 13.344 9.87818 12.6144 8.83898 12.6144Z" fill="black"/>
<path d="M13.4641 10.4928C12.0649 10.4928 11.3857 11.6952 11.3857 13.5696C11.3857 15.4416 12.0817 16.6464 13.4809 16.6464C14.8801 16.6464 15.5425 15.444 15.5425 13.5696C15.5449 11.6952 14.8657 10.4928 13.4641 10.4928ZM13.4833 15.4392C13.0537 15.4392 12.7609 14.9592 12.7609 13.5672C12.7609 12.192 12.9841 11.6952 13.4641 11.6952C13.9537 11.6952 14.1697 12.1512 14.1697 13.5672C14.1697 14.976 13.9729 15.4392 13.4833 15.4392Z" fill="black"/>
<path d="M17.7378 10.1304C16.905 10.1304 16.209 10.7928 16.209 11.6952C16.209 12.5712 16.905 13.224 17.7378 13.224C18.597 13.224 19.3002 12.5112 19.3002 11.6352C19.3002 10.7328 18.597 10.1304 17.7378 10.1304ZM17.7546 12.108C17.5218 12.108 17.325 11.9112 17.325 11.6784C17.325 11.4456 17.5218 11.2488 17.7546 11.2488C17.9874 11.2488 18.1842 11.4456 18.1842 11.6784C18.1842 11.9088 17.9874 12.108 17.7546 12.108Z" fill="black"/>
<path d="M23.443 4.23362C23.0638 4.15682 22.6966 4.39922 22.6198 4.77602C22.6126 4.80722 22.4158 5.76722 22.1398 7.11122C20.2558 7.06562 19.4326 5.37602 19.3966 5.30402C19.2862 5.07122 19.0582 4.91762 18.8038 4.90562C18.5446 4.89122 18.3046 5.02082 18.1702 5.23922L18.1078 5.34482C17.683 6.05042 17.0398 7.11602 15.4918 7.11602C13.8934 7.11602 12.9886 5.82242 12.6046 5.27282L12.5542 5.20082C12.4294 5.02322 12.2302 4.91522 12.0142 4.90562C11.7982 4.89362 11.5894 4.98722 11.4502 5.15282C11.383 5.23442 11.3038 5.33522 11.2174 5.45042C10.7158 6.11282 9.9574 7.11602 8.5342 7.11602C6.5926 7.11602 5.7502 5.37842 5.7166 5.30402C5.6062 5.07122 5.3782 4.91762 5.1214 4.90562C4.867 4.89362 4.6222 5.02082 4.4878 5.24162L4.4278 5.34242C4.0102 6.04082 3.379 7.08722 1.8646 7.11362C1.5838 5.76722 1.387 4.80722 1.3798 4.77602C1.303 4.39922 0.933399 4.15682 0.556598 4.23362C0.179798 4.31042 -0.0626015 4.68002 0.0141985 5.05682C0.0357985 5.16002 2.1598 15.4704 2.311 16.2216C2.839 18.8256 4.1326 19.7928 7.0822 19.7928H16.915C19.8646 19.7928 21.1582 18.8256 21.6862 16.2216C21.8374 15.4704 23.9614 5.16002 23.983 5.05682C24.0622 4.68002 23.8198 4.31042 23.443 4.23362ZM20.3206 15.9456C19.9534 17.7576 19.3846 18.3984 16.915 18.3984H7.0846C4.6174 18.3984 4.0462 17.7552 3.679 15.9456C3.5878 15.492 2.779 11.568 2.1478 8.49842C3.6358 8.39042 4.531 7.59122 5.0878 6.86642C5.7118 7.61282 6.8206 8.51042 8.5318 8.51042C10.2646 8.51042 11.3374 7.50722 11.9686 6.74642C12.6238 7.52402 13.7542 8.51042 15.487 8.51042C17.179 8.51042 18.1678 7.64402 18.7678 6.86402C19.4134 7.62482 20.4478 8.38322 21.8518 8.49362C21.2206 11.5656 20.4118 15.492 20.3206 15.9456Z" fill="black"/>
</svg>
