<svg width="24" height="24" viewBox="0 0 24 24" fill="none" xmlns="http://www.w3.org/2000/svg">
<path d="M9.65542 13.4184V13.392C10.2578 13.116 10.5482 12.696 10.5482 11.9832C10.5482 11.0376 9.79942 10.4448 8.74342 10.4448C7.89382 10.4448 7.24822 10.7544 6.87862 11.3472L7.58422 12.276C7.92022 11.8632 8.25382 11.7336 8.62342 11.7336C9.02662 11.7336 9.17302 11.9832 9.17302 12.24C9.17302 12.6528 8.80342 12.8424 8.34742 12.8424H8.00422V14.1312H8.38102C9.05062 14.1312 9.40342 14.3376 9.40342 14.7936C9.40342 15.1032 9.17062 15.3768 8.64742 15.3768C8.14102 15.3768 7.76182 15.06 7.46182 14.7144L6.74902 15.6672C7.06582 16.2096 7.72822 16.6632 8.73382 16.6632C9.88582 16.6632 10.7786 15.9768 10.7786 14.8416C10.781 14.1216 10.3946 13.5648 9.65542 13.4184Z" fill="black"/>
<path d="M13.5384 10.4808C12.1368 10.4808 11.46 11.6832 11.46 13.5576C11.46 15.4296 12.156 16.6344 13.5552 16.6344C14.9568 16.6344 15.6168 15.432 15.6168 13.5576C15.6192 11.6832 14.94 10.4808 13.5384 10.4808ZM13.5552 15.4296C13.1256 15.4296 12.8328 14.9496 12.8328 13.5576C12.8328 12.1824 13.056 11.6856 13.5384 11.6856C14.028 11.6856 14.2416 12.1416 14.2416 13.5576C14.244 14.964 14.0448 15.4296 13.5552 15.4296Z" fill="black"/>
<path d="M17.813 10.1184C16.9802 10.1184 16.2842 10.7808 16.2842 11.6832C16.2842 12.5592 16.9802 13.212 17.813 13.212C18.6722 13.212 19.3778 12.4992 19.3778 11.6232C19.3754 10.7208 18.6722 10.1184 17.813 10.1184ZM17.8298 12.096C17.597 12.096 17.4002 11.8992 17.4002 11.6664C17.4002 11.4336 17.597 11.2368 17.8298 11.2368C18.0626 11.2368 18.2594 11.4336 18.2594 11.6664C18.2594 11.8968 18.0626 12.096 17.8298 12.096Z" fill="black"/>
<path d="M23.443 4.22642C23.0638 4.14962 22.6966 4.39202 22.6198 4.76882C22.6126 4.80002 22.4158 5.76002 22.1398 7.10402C20.2558 7.05842 19.4326 5.36882 19.3966 5.29682C19.2862 5.06402 19.0582 4.91042 18.8038 4.89842C18.5446 4.88402 18.3046 5.01362 18.1702 5.23202L18.1078 5.33762C17.683 6.04322 17.0398 7.10882 15.4918 7.10882C13.8934 7.10882 12.9886 5.81522 12.6046 5.26562L12.5542 5.19362C12.4294 5.01602 12.2302 4.90802 12.0142 4.89842C11.7982 4.88642 11.5894 4.98002 11.4502 5.14562C11.383 5.22722 11.3038 5.32802 11.2174 5.44322C10.7158 6.10562 9.9574 7.10882 8.5342 7.10882C6.5926 7.10882 5.7502 5.37122 5.7166 5.29682C5.6062 5.06402 5.3782 4.91042 5.1214 4.89842C4.867 4.88882 4.6222 5.01362 4.4878 5.23442L4.4278 5.33522C4.0078 6.03122 3.3742 7.08002 1.8622 7.10642C1.5838 5.76002 1.387 4.80002 1.3798 4.76882C1.303 4.39202 0.935798 4.14962 0.556598 4.22642C0.179798 4.30322 -0.0626015 4.67282 0.0141985 5.04962C0.0357985 5.15282 2.1598 15.4632 2.311 16.2144C2.839 18.8184 4.1326 19.7856 7.0822 19.7856H16.915C19.8646 19.7856 21.1582 18.8184 21.6862 16.2144C21.8374 15.4632 23.9614 5.15282 23.983 5.04962C24.0622 4.67282 23.8198 4.30562 23.443 4.22642ZM20.3206 15.9384C19.9534 17.7504 19.3846 18.3936 16.915 18.3936H7.0846C4.6174 18.3936 4.0462 17.7504 3.679 15.9384C3.5878 15.4848 2.779 11.5608 2.1478 8.49122C3.6358 8.38322 4.531 7.58402 5.0878 6.85922C5.7118 7.60562 6.8206 8.50322 8.5318 8.50322C10.2646 8.50322 11.3374 7.50002 11.9686 6.73922C12.6238 7.51682 13.7542 8.50322 15.487 8.50322C17.179 8.50322 18.1678 7.63682 18.7678 6.85682C19.4134 7.61762 20.4478 8.37602 21.8518 8.48642C21.2206 11.5584 20.4118 15.4848 20.3206 15.9384Z" fill="black"/>
</svg>
