<svg width="24" height="24" viewBox="0 0 24 24" fill="none" xmlns="http://www.w3.org/2000/svg">
<path d="M10.7734 12.7056H9.48458V13.9944H8.40938L10.3774 10.5576H8.89898L6.75098 14.3208V15.2832H9.48458V16.572H10.7734V15.2832H11.4766V13.9944H10.7734V12.7056Z" fill="black"/>
<path d="M14.0442 10.488C12.645 10.488 11.9658 11.6904 11.9658 13.5648C11.9658 15.4368 12.6618 16.6416 14.061 16.6416C15.4602 16.6416 16.1226 15.4392 16.1226 13.5648C16.125 11.6928 15.4458 10.488 14.0442 10.488ZM14.0634 15.4368C13.6338 15.4368 13.341 14.9568 13.341 13.5648C13.341 12.1896 13.5642 11.6928 14.0442 11.6928C14.5338 11.6928 14.7498 12.1488 14.7498 13.5648C14.7498 14.9736 14.553 15.4368 14.0634 15.4368Z" fill="black"/>
<path d="M18.3188 10.128C17.486 10.128 16.79 10.7904 16.79 11.6928C16.79 12.5688 17.486 13.2216 18.3188 13.2216C19.178 13.2216 19.8812 12.5088 19.8812 11.6328C19.8812 10.7304 19.178 10.128 18.3188 10.128ZM18.3356 12.1032C18.1028 12.1032 17.906 11.9064 17.906 11.6736C17.906 11.4408 18.1028 11.244 18.3356 11.244C18.5684 11.244 18.7652 11.4408 18.7652 11.6736C18.7652 11.9064 18.5684 12.1032 18.3356 12.1032Z" fill="black"/>
<path d="M23.443 4.23362C23.0638 4.15682 22.6966 4.39922 22.6198 4.77602C22.6126 4.80722 22.4158 5.76722 22.1398 7.11122C20.2558 7.06562 19.4326 5.37602 19.3966 5.30402C19.2862 5.07122 19.0582 4.91762 18.8038 4.90562C18.5446 4.89122 18.3046 5.02082 18.1702 5.23922L18.1078 5.34482C17.683 6.05042 17.0398 7.11602 15.4918 7.11602C13.8934 7.11602 12.9886 5.82242 12.6046 5.27282L12.5542 5.20082C12.4294 5.02322 12.2302 4.91522 12.0142 4.90562C11.7982 4.89362 11.5894 4.98722 11.4502 5.15282C11.383 5.23442 11.3038 5.33522 11.2174 5.45042C10.7158 6.11282 9.9574 7.11602 8.5342 7.11602C6.5926 7.11602 5.7502 5.37842 5.7166 5.30402C5.6062 5.07122 5.3782 4.91762 5.1214 4.90562C4.867 4.89362 4.6222 5.02082 4.4878 5.24162L4.4278 5.34242C4.0102 6.04082 3.379 7.08722 1.8646 7.11362C1.5838 5.76722 1.387 4.80722 1.3798 4.77602C1.303 4.39922 0.933399 4.15682 0.556598 4.23362C0.179798 4.31042 -0.0626015 4.68002 0.0141985 5.05682C0.0357985 5.16002 2.1598 15.4704 2.311 16.2216C2.839 18.8256 4.1326 19.7928 7.0822 19.7928H16.915C19.8646 19.7928 21.1582 18.8256 21.6862 16.2216C21.8374 15.4704 23.9614 5.16002 23.983 5.05682C24.0622 4.68002 23.8198 4.31042 23.443 4.23362ZM20.3206 15.9456C19.9534 17.7576 19.3846 18.3984 16.915 18.3984H7.0846C4.6174 18.3984 4.0462 17.7552 3.679 15.9456C3.5878 15.492 2.779 11.568 2.1478 8.49842C3.6358 8.39042 4.531 7.59122 5.0878 6.86642C5.7118 7.61282 6.8206 8.51042 8.5318 8.51042C10.2646 8.51042 11.3374 7.50722 11.9686 6.74642C12.6238 7.52402 13.7542 8.51042 15.487 8.51042C17.179 8.51042 18.1678 7.64402 18.7678 6.86402C19.4134 7.62482 20.4478 8.38322 21.8518 8.49362C21.2206 11.5656 20.4118 15.492 20.3206 15.9456Z" fill="black"/>
</svg>
