<svg width="24" height="24" viewBox="0 0 24 24" fill="none" xmlns="http://www.w3.org/2000/svg">
<path d="M9.59457 12.8304C9.10497 12.8304 8.79537 12.9168 8.53857 13.1568C8.89137 12.3312 9.63777 11.7312 10.5234 11.4312L10.0002 10.4592C8.70177 10.8024 7.00977 12.2376 7.00977 14.4456C7.00977 15.6744 7.88577 16.68 9.22737 16.68C10.2162 16.68 11.2554 16.0008 11.2554 14.6616C11.253 13.5624 10.4538 12.8304 9.59457 12.8304ZM9.23457 15.3912C8.69217 15.3912 8.38497 15.0216 8.38497 14.4552C8.54097 14.232 8.78097 14.0352 9.15057 14.0352C9.63297 14.0352 9.88017 14.3448 9.88017 14.7576C9.87777 15.0648 9.69057 15.3912 9.23457 15.3912Z" fill="black"/>
<path d="M13.8401 10.4952C12.4409 10.4952 11.7617 11.6976 11.7617 13.572C11.7617 15.444 12.4577 16.6488 13.8569 16.6488C15.2561 16.6488 15.9185 15.4464 15.9185 13.572C15.9209 11.6976 15.2417 10.4952 13.8401 10.4952ZM13.8569 15.444C13.4273 15.444 13.1345 14.9616 13.1345 13.572C13.1345 12.1968 13.3577 11.7 13.8401 11.7C14.3297 11.7 14.5457 12.156 14.5457 13.572C14.5457 14.9784 14.3489 15.444 13.8569 15.444Z" fill="black"/>
<path d="M18.1147 10.1328C17.2819 10.1328 16.5859 10.7952 16.5859 11.6976C16.5859 12.5736 17.2819 13.2264 18.1147 13.2264C18.9739 13.2264 19.6771 12.5136 19.6771 11.6376C19.6771 10.7352 18.9739 10.1328 18.1147 10.1328ZM18.1315 12.1104C17.8987 12.1104 17.7019 11.9136 17.7019 11.6808C17.7019 11.448 17.8987 11.2512 18.1315 11.2512C18.3643 11.2512 18.5611 11.448 18.5611 11.6808C18.5611 11.9112 18.3643 12.1104 18.1315 12.1104Z" fill="black"/>
<path d="M23.443 4.23358C23.0638 4.15438 22.6966 4.39918 22.6198 4.77598C22.6126 4.80718 22.4158 5.76718 22.1398 7.11118C20.2558 7.06558 19.4326 5.37598 19.3966 5.30398C19.2862 5.07118 19.0582 4.91758 18.8038 4.90558C18.5446 4.88878 18.3046 5.02078 18.1702 5.23918L18.1078 5.34478C17.683 6.05038 17.0398 7.11598 15.4918 7.11598C13.8934 7.11598 12.9886 5.82238 12.6046 5.27278L12.5542 5.20078C12.4294 5.02318 12.2302 4.91518 12.0142 4.90558C11.7982 4.89358 11.5894 4.98718 11.4502 5.15278C11.383 5.23438 11.3038 5.33518 11.2174 5.45038C10.7158 6.11278 9.9574 7.11598 8.5342 7.11598C6.5926 7.11598 5.7502 5.37838 5.7166 5.30398C5.6062 5.07118 5.3782 4.91758 5.1214 4.90558C4.867 4.89598 4.6222 5.02078 4.4878 5.24158L4.4278 5.34238C4.0102 6.04078 3.379 7.08718 1.8646 7.11358C1.5838 5.76718 1.387 4.80718 1.3798 4.77598C1.303 4.39918 0.933399 4.15438 0.556598 4.23358C0.179798 4.31038 -0.0626015 4.67998 0.0141985 5.05678C0.0357985 5.15998 2.1598 15.4704 2.311 16.2216C2.839 18.8256 4.1326 19.7928 7.0822 19.7928H16.915C19.8646 19.7928 21.1582 18.8256 21.6862 16.2216C21.8374 15.4704 23.9614 5.15998 23.983 5.05678C24.0622 4.67998 23.8198 4.31038 23.443 4.23358ZM20.3206 15.9456C19.9534 17.7576 19.3846 18.4008 16.915 18.4008H7.0846C4.6174 18.4008 4.0462 17.7576 3.679 15.9456C3.5878 15.492 2.779 11.568 2.1478 8.49838C3.6358 8.39038 4.531 7.59118 5.0878 6.86638C5.7118 7.61278 6.8206 8.51038 8.5318 8.51038C10.2646 8.51038 11.3374 7.50718 11.9686 6.74638C12.6238 7.52398 13.7542 8.51038 15.487 8.51038C17.179 8.51038 18.1678 7.64398 18.7678 6.86398C19.4134 7.62478 20.4478 8.38318 21.8518 8.49358C21.2206 11.5656 20.4118 15.492 20.3206 15.9456Z" fill="black"/>
</svg>
