<svg width="28" height="28" viewBox="0 0 28 28" fill="none" xmlns="http://www.w3.org/2000/svg">
<path d="M16.1456 9.35574C16.1456 7.97577 17.2644 6.85707 18.6444 6.85714C20.0243 6.85721 21.1428 7.97584 21.1428 9.35574C21.1428 10.7356 20.0243 11.8543 18.6444 11.8543C17.2644 11.8544 16.1456 10.7357 16.1456 9.35574Z" fill="#C1C1C1"/>
<path fill-rule="evenodd" clip-rule="evenodd" d="M3.01393 3.01326C5.33143 0.696047 8.97704 0 14.0007 0C19.0243 0 22.6696 0.696037 24.9868 3.01332C27.304 5.33059 28 8.97609 28 14C28 17.2417 27.6966 19.8762 26.8848 21.9512C25.7837 24.7657 23.7894 26.4406 20.7711 27.2802C18.9076 27.7985 16.6596 28 14.0007 28C10.3068 28 7.375 27.6132 5.16352 26.4934C2.86796 25.3311 1.46787 23.4433 0.723021 20.7683C0.20548 18.9096 0 16.6642 0 14C0 8.97599 0.696393 5.33051 3.01393 3.01326ZM4.63008 4.6296C3.01855 6.24092 2.28571 9.02401 2.28571 14C2.28571 15.5854 2.36226 16.9579 2.5236 18.1459L4.25791 16.4116C4.805 15.8645 5.26486 15.4046 5.67209 15.0598C6.09799 14.6992 6.54241 14.3967 7.07956 14.2268C7.8645 13.9785 8.70693 13.9785 9.49187 14.2268C10.029 14.3967 10.4734 14.6992 10.8993 15.0598C11.3066 15.4046 11.7664 15.8644 12.3135 16.4116L14.7143 18.8123L15.6865 17.8401C16.2336 17.293 16.6934 16.8332 17.1007 16.4884C17.5266 16.1278 17.971 15.8252 18.5081 15.6554C19.2931 15.4071 20.1355 15.4071 20.9204 15.6554C21.4576 15.8252 21.902 16.1278 22.3279 16.4884C22.7352 16.8332 23.1949 17.2929 23.742 17.8401L25.2675 19.3656C25.5711 17.9298 25.7143 16.1665 25.7143 14C25.7143 9.02392 24.9817 6.24084 23.3705 4.62953C21.7593 3.01825 18.9764 2.28571 14.0007 2.28571C9.02494 2.28571 6.24164 3.01824 4.63008 4.6296ZM22.8621 23.7843L19.5085 20.4307C19.3412 20.2634 19.2576 20.1798 19.175 20.1131C18.4474 19.5255 17.3895 19.5255 16.6619 20.1131C16.5793 20.1798 16.4964 20.2627 16.3305 20.4286L20.7852 24.8832C21.602 24.6002 22.287 24.2391 22.8621 23.7843Z" fill="#C1C1C1"/>
</svg>
